# xmcd CD database file
#
# Track frame offsets:
#	150
#	16532
#	50705
#	77183
#	93366
#	111692
#	128418
#
# Disc length: 2094 seconds
#
# Revision: 0
# Processed by: cddbd v1.5.2PL0 Copyright (c) Steve Scherf et al.
# Submitted via: CDex 1.70beta3
#
DISCID=51082c07
DTITLE=Elvin Jones - And Then Again (Atlantic LP 1443)
DYEAR=1965
DGENRE=Jazz
TTITLE0=Azan
TTITLE1=All Deliberate Speed
TTITLE2=Elvin Elpus
TTITLE3=Soon After
TTITLE4=Forever Summer
TTITLE5=Len Sirrah
TTITLE6=And Then Again
EXTD=YEAR: 1965
EXTT0=
EXTT1=
EXTT2=
EXTT3=
EXTT4=
EXTT5=
EXTT6=
PLAYORDER=
